solid OpenSCAD_Model
  facet normal 0.866025 0.5 0
    outer loop
      vertex 4 0 55
      vertex 2 3.4641 -55
      vertex 2 3.4641 55
    endloop
  endfacet
  facet normal 0.866025 0.5 0
    outer loop
      vertex 2 3.4641 -55
      vertex 4 0 55
      vertex 4 0 -55
    endloop
  endfacet
  facet normal 0 1 -0
    outer loop
      vertex 2 3.4641 -55
      vertex -2 3.4641 55
      vertex 2 3.4641 55
    endloop
  endfacet
  facet normal 0 1 0
    outer loop
      vertex -2 3.4641 55
      vertex 2 3.4641 -55
      vertex -2 3.4641 -55
    endloop
  endfacet
  facet normal -0.866025 0.5 0
    outer loop
      vertex -4 4.89859e-16 -55
      vertex -2 3.4641 55
      vertex -2 3.4641 -55
    endloop
  endfacet
  facet normal -0.866025 0.5 0
    outer loop
      vertex -2 3.4641 55
      vertex -4 4.89859e-16 -55
      vertex -4 4.89859e-16 55
    endloop
  endfacet
  facet normal -0.866025 -0.5 0
    outer loop
      vertex -2 -3.4641 -55
      vertex -4 4.89859e-16 55
      vertex -4 4.89859e-16 -55
    endloop
  endfacet
  facet normal -0.866025 -0.5 0
    outer loop
      vertex -4 4.89859e-16 55
      vertex -2 -3.4641 -55
      vertex -2 -3.4641 55
    endloop
  endfacet
  facet normal 0 -1 0
    outer loop
      vertex -2 -3.4641 -55
      vertex 2 -3.4641 55
      vertex -2 -3.4641 55
    endloop
  endfacet
  facet normal 0 -1 -0
    outer loop
      vertex 2 -3.4641 55
      vertex -2 -3.4641 -55
      vertex 2 -3.4641 -55
    endloop
  endfacet
  facet normal 0.866025 -0.5 0
    outer loop
      vertex 2 -3.4641 55
      vertex 4 0 -55
      vertex 4 0 55
    endloop
  endfacet
  facet normal 0.866025 -0.5 0
    outer loop
      vertex 4 0 -55
      vertex 2 -3.4641 55
      vertex 2 -3.4641 -55
    endloop
  endfacet
  facet normal 0 0 -1
    outer loop
      vertex 2 -3.4641 -55
      vertex 2 3.4641 -55
      vertex 4 0 -55
    endloop
  endfacet
  facet normal 0 0 -1
    outer loop
      vertex -2 -3.4641 -55
      vertex 2 3.4641 -55
      vertex 2 -3.4641 -55
    endloop
  endfacet
  facet normal 0 0 -1
    outer loop
      vertex -2 -3.4641 -55
      vertex -2 3.4641 -55
      vertex 2 3.4641 -55
    endloop
  endfacet
  facet normal 0 -0 -1
    outer loop
      vertex -2 3.4641 -55
      vertex -2 -3.4641 -55
      vertex -4 4.89859e-16 -55
    endloop
  endfacet
  facet normal 0 0 1
    outer loop
      vertex 2 3.4641 55
      vertex 2 -3.4641 55
      vertex 4 0 55
    endloop
  endfacet
  facet normal -0 0 1
    outer loop
      vertex -2 3.4641 55
      vertex 2 -3.4641 55
      vertex 2 3.4641 55
    endloop
  endfacet
  facet normal 0 0 1
    outer loop
      vertex -2 3.4641 55
      vertex -2 -3.4641 55
      vertex 2 -3.4641 55
    endloop
  endfacet
  facet normal 0 -0 1
    outer loop
      vertex -2 -3.4641 55
      vertex -2 3.4641 55
      vertex -4 4.89859e-16 55
    endloop
  endfacet
endsolid OpenSCAD_Model
