solid OpenSCAD_Model
  facet normal -0.972369 0.233449 0
    outer loop
      vertex -42.9631 25.4693 -3
      vertex -42.8532 25.9271 3
      vertex -42.8532 25.9271 -3
    endloop
  endfacet
  facet normal -0.972369 0.233449 0
    outer loop
      vertex -42.8532 25.9271 3
      vertex -42.9631 25.4693 -3
      vertex -42.9631 25.4693 3
    endloop
  endfacet
  facet normal 1 -0 0
    outer loop
      vertex 43 -25 3
      vertex 43 25 -3
      vertex 43 25 3
    endloop
  endfacet
  facet normal 1 0 0
    outer loop
      vertex 43 25 -3
      vertex 43 -25 3
      vertex 43 -25 -3
    endloop
  endfacet
  facet normal -0.92388 0.382683 0
    outer loop
      vertex -42.8532 25.9271 -3
      vertex -42.673 26.362 3
      vertex -42.673 26.362 -3
    endloop
  endfacet
  facet normal -0.92388 0.382683 0
    outer loop
      vertex -42.673 26.362 3
      vertex -42.8532 25.9271 -3
      vertex -42.8532 25.9271 3
    endloop
  endfacet
  facet normal -0.852641 0.522497 0
    outer loop
      vertex -42.673 26.362 -3
      vertex -42.4271 26.7634 3
      vertex -42.4271 26.7634 -3
    endloop
  endfacet
  facet normal -0.852641 0.522497 0
    outer loop
      vertex -42.4271 26.7634 3
      vertex -42.673 26.362 -3
      vertex -42.673 26.362 3
    endloop
  endfacet
  facet normal -0.996918 -0.0784569 0
    outer loop
      vertex -42.9631 -25.4693 -3
      vertex -43 -25 3
      vertex -43 -25 -3
    endloop
  endfacet
  facet normal -0.996918 -0.0784569 0
    outer loop
      vertex -43 -25 3
      vertex -42.9631 -25.4693 -3
      vertex -42.9631 -25.4693 3
    endloop
  endfacet
  facet normal 0 0 1
    outer loop
      vertex 40 28 3
      vertex 43 25 3
      vertex 42.9631 25.4693 3
    endloop
  endfacet
  facet normal 0 0 1
    outer loop
      vertex 43 25 3
      vertex 19.1 0 3
      vertex 43 -25 3
    endloop
  endfacet
  facet normal 0 0 1
    outer loop
      vertex 40 28 3
      vertex 42.9631 25.4693 3
      vertex 42.8532 25.9271 3
    endloop
  endfacet
  facet normal -0 0 1
    outer loop
      vertex 17.05 -3.5507 3
      vertex 43 -25 3
      vertex 19.1 0 3
    endloop
  endfacet
  facet normal 0 0 1
    outer loop
      vertex 40 28 3
      vertex 42.8532 25.9271 3
      vertex 42.673 26.362 3
    endloop
  endfacet
  facet normal 0 -0 1
    outer loop
      vertex 40 -28 3
      vertex 43 -25 3
      vertex 17.05 -3.5507 3
    endloop
  endfacet
  facet normal 0 0 1
    outer loop
      vertex 40 28 3
      vertex 42.673 26.362 3
      vertex 42.4271 26.7634 3
    endloop
  endfacet
  facet normal 0 0 1
    outer loop
      vertex 43 -25 3
      vertex 40 -28 3
      vertex 42.9631 -25.4693 3
    endloop
  endfacet
  facet normal 0 0 1
    outer loop
      vertex 40 28 3
      vertex 42.4271 26.7634 3
      vertex 42.1213 27.1213 3
    endloop
  endfacet
  facet normal 0 0 1
    outer loop
      vertex 42.9631 -25.4693 3
      vertex 40 -28 3
      vertex 42.8532 -25.9271 3
    endloop
  endfacet
  facet normal 0 0 1
    outer loop
      vertex 40 28 3
      vertex 42.1213 27.1213 3
      vertex 41.7634 27.4271 3
    endloop
  endfacet
  facet normal 0 0 1
    outer loop
      vertex 42.8532 -25.9271 3
      vertex 40 -28 3
      vertex 42.673 -26.362 3
    endloop
  endfacet
  facet normal 0 0 1
    outer loop
      vertex 40 28 3
      vertex 41.7634 27.4271 3
      vertex 41.362 27.673 3
    endloop
  endfacet
  facet normal 0 0 1
    outer loop
      vertex 42.4271 -26.7634 3
      vertex 40 -28 3
      vertex 42.1213 -27.1213 3
    endloop
  endfacet
  facet normal 0 0 1
    outer loop
      vertex 40 28 3
      vertex 41.362 27.673 3
      vertex 40.9271 27.8532 3
    endloop
  endfacet
  facet normal 0 0 1
    outer loop
      vertex 42.1213 -27.1213 3
      vertex 40 -28 3
      vertex 41.7634 -27.4271 3
    endloop
  endfacet
  facet normal 0 0 1
    outer loop
      vertex 40 28 3
      vertex 40.9271 27.8532 3
      vertex 40.4693 27.9631 3
    endloop
  endfacet
  facet normal 0 0 1
    outer loop
      vertex 41.7634 -27.4271 3
      vertex 40 -28 3
      vertex 41.362 -27.673 3
    endloop
  endfacet
  facet normal 0 0 1
    outer loop
      vertex 43 25 3
      vertex 40 28 3
      vertex 17.05 3.5507 3
    endloop
  endfacet
  facet normal 0 0 1
    outer loop
      vertex 41.362 -27.673 3
      vertex 40 -28 3
      vertex 40.9271 -27.8532 3
    endloop
  endfacet
  facet normal 0 0 1
    outer loop
      vertex 40.9271 -27.8532 3
      vertex 40 -28 3
      vertex 40.4693 -27.9631 3
    endloop
  endfacet
  facet normal 0 0 1
    outer loop
      vertex 43 25 3
      vertex 17.05 3.5507 3
      vertex 19.1 0 3
    endloop
  endfacet
  facet normal 0 0 1
    outer loop
      vertex 40 28 3
      vertex 12.95 3.5507 3
      vertex 17.05 3.5507 3
    endloop
  endfacet
  facet normal 0 0 1
    outer loop
      vertex 12.95 3.5507 3
      vertex -40 28 3
      vertex 10.9 0 3
    endloop
  endfacet
  facet normal -0 0 1
    outer loop
      vertex -40 28 3
      vertex 12.95 3.5507 3
      vertex 40 28 3
    endloop
  endfacet
  facet normal 0 0 1
    outer loop
      vertex 42.673 -26.362 3
      vertex 40 -28 3
      vertex 42.4271 -26.7634 3
    endloop
  endfacet
  facet normal -0 0 1
    outer loop
      vertex 12.95 -3.5507 3
      vertex 40 -28 3
      vertex 17.05 -3.5507 3
    endloop
  endfacet
  facet normal -0 0 1
    outer loop
      vertex -43 25 3
      vertex 10.9 0 3
      vertex -40 28 3
    endloop
  endfacet
  facet normal 0 0 1
    outer loop
      vertex -43 -25 3
      vertex 10.9 0 3
      vertex -43 25 3
    endloop
  endfacet
  facet normal 0 0 1
    outer loop
      vertex 12.95 -3.5507 3
      vertex -40 -28 3
      vertex 40 -28 3
    endloop
  endfacet
  facet normal 0 0 1
    outer loop
      vertex -43 25 3
      vertex -40 28 3
      vertex -40.4693 27.9631 3
    endloop
  endfacet
  facet normal 0 -0 1
    outer loop
      vertex -40 -28 3
      vertex 10.9 0 3
      vertex -43 -25 3
    endloop
  endfacet
  facet normal 0 0 1
    outer loop
      vertex -43 25 3
      vertex -40.4693 27.9631 3
      vertex -40.9271 27.8532 3
    endloop
  endfacet
  facet normal 0 0 1
    outer loop
      vertex 10.9 0 3
      vertex -40 -28 3
      vertex 12.95 -3.5507 3
    endloop
  endfacet
  facet normal 0 0 1
    outer loop
      vertex -43 25 3
      vertex -40.9271 27.8532 3
      vertex -41.362 27.673 3
    endloop
  endfacet
  facet normal 0 0 1
    outer loop
      vertex -40 -28 3
      vertex -43 -25 3
      vertex -40.4693 -27.9631 3
    endloop
  endfacet
  facet normal 0 0 1
    outer loop
      vertex -43 25 3
      vertex -41.362 27.673 3
      vertex -41.7634 27.4271 3
    endloop
  endfacet
  facet normal 0 0 1
    outer loop
      vertex -40.4693 -27.9631 3
      vertex -43 -25 3
      vertex -40.9271 -27.8532 3
    endloop
  endfacet
  facet normal 0 0 1
    outer loop
      vertex -43 25 3
      vertex -41.7634 27.4271 3
      vertex -42.1213 27.1213 3
    endloop
  endfacet
  facet normal 0 0 1
    outer loop
      vertex -40.9271 -27.8532 3
      vertex -43 -25 3
      vertex -41.362 -27.673 3
    endloop
  endfacet
  facet normal 0 0 1
    outer loop
      vertex -43 25 3
      vertex -42.1213 27.1213 3
      vertex -42.4271 26.7634 3
    endloop
  endfacet
  facet normal 0 0 1
    outer loop
      vertex -41.362 -27.673 3
      vertex -43 -25 3
      vertex -41.7634 -27.4271 3
    endloop
  endfacet
  facet normal 0 0 1
    outer loop
      vertex -43 25 3
      vertex -42.4271 26.7634 3
      vertex -42.673 26.362 3
    endloop
  endfacet
  facet normal 0 0 1
    outer loop
      vertex -41.7634 -27.4271 3
      vertex -43 -25 3
      vertex -42.1213 -27.1213 3
    endloop
  endfacet
  facet normal 0 0 1
    outer loop
      vertex -43 25 3
      vertex -42.673 26.362 3
      vertex -42.8532 25.9271 3
    endloop
  endfacet
  facet normal 0 0 1
    outer loop
      vertex -42.1213 -27.1213 3
      vertex -43 -25 3
      vertex -42.4271 -26.7634 3
    endloop
  endfacet
  facet normal 0 0 1
    outer loop
      vertex -43 25 3
      vertex -42.8532 25.9271 3
      vertex -42.9631 25.4693 3
    endloop
  endfacet
  facet normal 0 0 1
    outer loop
      vertex -42.4271 -26.7634 3
      vertex -43 -25 3
      vertex -42.673 -26.362 3
    endloop
  endfacet
  facet normal 0 0 1
    outer loop
      vertex -42.673 -26.362 3
      vertex -43 -25 3
      vertex -42.8532 -25.9271 3
    endloop
  endfacet
  facet normal 0 0 1
    outer loop
      vertex -42.8532 -25.9271 3
      vertex -43 -25 3
      vertex -42.9631 -25.4693 3
    endloop
  endfacet
  facet normal 0 1 -0
    outer loop
      vertex 40 28 -3
      vertex -40 28 3
      vertex 40 28 3
    endloop
  endfacet
  facet normal 0 1 0
    outer loop
      vertex -40 28 3
      vertex 40 28 -3
      vertex -40 28 -3
    endloop
  endfacet
  facet normal 0.852641 0.522497 0
    outer loop
      vertex 42.673 26.362 3
      vertex 42.4271 26.7634 -3
      vertex 42.4271 26.7634 3
    endloop
  endfacet
  facet normal 0.852641 0.522497 0
    outer loop
      vertex 42.4271 26.7634 -3
      vertex 42.673 26.362 3
      vertex 42.673 26.362 -3
    endloop
  endfacet
  facet normal -0.852641 -0.522497 0
    outer loop
      vertex -42.4271 -26.7634 -3
      vertex -42.673 -26.362 3
      vertex -42.673 -26.362 -3
    endloop
  endfacet
  facet normal -0.852641 -0.522497 0
    outer loop
      vertex -42.673 -26.362 3
      vertex -42.4271 -26.7634 -3
      vertex -42.4271 -26.7634 3
    endloop
  endfacet
  facet normal -1 0 0
    outer loop
      vertex -43 -25 -3
      vertex -43 25 3
      vertex -43 25 -3
    endloop
  endfacet
  facet normal -1 -0 0
    outer loop
      vertex -43 25 3
      vertex -43 -25 -3
      vertex -43 -25 3
    endloop
  endfacet
  facet normal -0.0784609 0.996917 0
    outer loop
      vertex -40 28 -3
      vertex -40.4693 27.9631 3
      vertex -40 28 3
    endloop
  endfacet
  facet normal -0.0784609 0.996917 0
    outer loop
      vertex -40.4693 27.9631 3
      vertex -40 28 -3
      vertex -40.4693 27.9631 -3
    endloop
  endfacet
  facet normal 0.760403 0.649452 0
    outer loop
      vertex 42.4271 26.7634 3
      vertex 42.1213 27.1213 -3
      vertex 42.1213 27.1213 3
    endloop
  endfacet
  facet normal 0.760403 0.649452 0
    outer loop
      vertex 42.1213 27.1213 -3
      vertex 42.4271 26.7634 3
      vertex 42.4271 26.7634 -3
    endloop
  endfacet
  facet normal 0.92388 0.382683 0
    outer loop
      vertex 42.8532 25.9271 3
      vertex 42.673 26.362 -3
      vertex 42.673 26.362 3
    endloop
  endfacet
  facet normal 0.92388 0.382683 0
    outer loop
      vertex 42.673 26.362 -3
      vertex 42.8532 25.9271 3
      vertex 42.8532 25.9271 -3
    endloop
  endfacet
  facet normal -0.996918 0.0784569 0
    outer loop
      vertex -43 25 -3
      vertex -42.9631 25.4693 3
      vertex -42.9631 25.4693 -3
    endloop
  endfacet
  facet normal -0.996918 0.0784569 0
    outer loop
      vertex -42.9631 25.4693 3
      vertex -43 25 -3
      vertex -43 25 3
    endloop
  endfacet
  facet normal 0.996918 0.0784569 0
    outer loop
      vertex 43 25 3
      vertex 42.9631 25.4693 -3
      vertex 42.9631 25.4693 3
    endloop
  endfacet
  facet normal 0.996918 0.0784569 0
    outer loop
      vertex 42.9631 25.4693 -3
      vertex 43 25 3
      vertex 43 25 -3
    endloop
  endfacet
  facet normal 0.649452 0.760403 -0
    outer loop
      vertex 42.1213 27.1213 -3
      vertex 41.7634 27.4271 3
      vertex 42.1213 27.1213 3
    endloop
  endfacet
  facet normal 0.649452 0.760403 0
    outer loop
      vertex 41.7634 27.4271 3
      vertex 42.1213 27.1213 -3
      vertex 41.7634 27.4271 -3
    endloop
  endfacet
  facet normal 0.972369 0.233449 0
    outer loop
      vertex 42.9631 25.4693 3
      vertex 42.8532 25.9271 -3
      vertex 42.8532 25.9271 3
    endloop
  endfacet
  facet normal 0.972369 0.233449 0
    outer loop
      vertex 42.8532 25.9271 -3
      vertex 42.9631 25.4693 3
      vertex 42.9631 25.4693 -3
    endloop
  endfacet
  facet normal 0.649452 -0.760403 0
    outer loop
      vertex 41.7634 -27.4271 -3
      vertex 42.1213 -27.1213 3
      vertex 41.7634 -27.4271 3
    endloop
  endfacet
  facet normal 0.649452 -0.760403 0
    outer loop
      vertex 42.1213 -27.1213 3
      vertex 41.7634 -27.4271 -3
      vertex 42.1213 -27.1213 -3
    endloop
  endfacet
  facet normal 0.382684 -0.923879 0
    outer loop
      vertex 40.9271 -27.8532 -3
      vertex 41.362 -27.673 3
      vertex 40.9271 -27.8532 3
    endloop
  endfacet
  facet normal 0.382684 -0.923879 0
    outer loop
      vertex 41.362 -27.673 3
      vertex 40.9271 -27.8532 -3
      vertex 41.362 -27.673 -3
    endloop
  endfacet
  facet normal -0.382684 -0.923879 0
    outer loop
      vertex -41.362 -27.673 -3
      vertex -40.9271 -27.8532 3
      vertex -41.362 -27.673 3
    endloop
  endfacet
  facet normal -0.382684 -0.923879 -0
    outer loop
      vertex -40.9271 -27.8532 3
      vertex -41.362 -27.673 -3
      vertex -40.9271 -27.8532 -3
    endloop
  endfacet
  facet normal 0 -1 0
    outer loop
      vertex -40 -28 -3
      vertex 40 -28 3
      vertex -40 -28 3
    endloop
  endfacet
  facet normal 0 -1 -0
    outer loop
      vertex 40 -28 3
      vertex -40 -28 -3
      vertex 40 -28 -3
    endloop
  endfacet
  facet normal -0.233445 -0.97237 0
    outer loop
      vertex -40.9271 -27.8532 -3
      vertex -40.4693 -27.9631 3
      vertex -40.9271 -27.8532 3
    endloop
  endfacet
  facet normal -0.233445 -0.97237 -0
    outer loop
      vertex -40.4693 -27.9631 3
      vertex -40.9271 -27.8532 -3
      vertex -40.4693 -27.9631 -3
    endloop
  endfacet
  facet normal -0.92388 -0.382683 0
    outer loop
      vertex -42.673 -26.362 -3
      vertex -42.8532 -25.9271 3
      vertex -42.8532 -25.9271 -3
    endloop
  endfacet
  facet normal -0.92388 -0.382683 0
    outer loop
      vertex -42.8532 -25.9271 3
      vertex -42.673 -26.362 -3
      vertex -42.673 -26.362 3
    endloop
  endfacet
  facet normal -0.649452 -0.760403 0
    outer loop
      vertex -42.1213 -27.1213 -3
      vertex -41.7634 -27.4271 3
      vertex -42.1213 -27.1213 3
    endloop
  endfacet
  facet normal -0.649452 -0.760403 -0
    outer loop
      vertex -41.7634 -27.4271 3
      vertex -42.1213 -27.1213 -3
      vertex -41.7634 -27.4271 -3
    endloop
  endfacet
  facet normal 0.972369 -0.233449 0
    outer loop
      vertex 42.8532 -25.9271 3
      vertex 42.9631 -25.4693 -3
      vertex 42.9631 -25.4693 3
    endloop
  endfacet
  facet normal 0.972369 -0.233449 0
    outer loop
      vertex 42.9631 -25.4693 -3
      vertex 42.8532 -25.9271 3
      vertex 42.8532 -25.9271 -3
    endloop
  endfacet
  facet normal -0.382684 0.923879 0
    outer loop
      vertex -40.9271 27.8532 -3
      vertex -41.362 27.673 3
      vertex -40.9271 27.8532 3
    endloop
  endfacet
  facet normal -0.382684 0.923879 0
    outer loop
      vertex -41.362 27.673 3
      vertex -40.9271 27.8532 -3
      vertex -41.362 27.673 -3
    endloop
  endfacet
  facet normal 0.522496 -0.852642 0
    outer loop
      vertex 41.362 -27.673 -3
      vertex 41.7634 -27.4271 3
      vertex 41.362 -27.673 3
    endloop
  endfacet
  facet normal 0.522496 -0.852642 0
    outer loop
      vertex 41.7634 -27.4271 3
      vertex 41.362 -27.673 -3
      vertex 41.7634 -27.4271 -3
    endloop
  endfacet
  facet normal -0.0784609 -0.996917 0
    outer loop
      vertex -40.4693 -27.9631 -3
      vertex -40 -28 3
      vertex -40.4693 -27.9631 3
    endloop
  endfacet
  facet normal -0.0784609 -0.996917 -0
    outer loop
      vertex -40 -28 3
      vertex -40.4693 -27.9631 -3
      vertex -40 -28 -3
    endloop
  endfacet
  facet normal 0.0784609 -0.996917 0
    outer loop
      vertex 40 -28 -3
      vertex 40.4693 -27.9631 3
      vertex 40 -28 3
    endloop
  endfacet
  facet normal 0.0784609 -0.996917 0
    outer loop
      vertex 40.4693 -27.9631 3
      vertex 40 -28 -3
      vertex 40.4693 -27.9631 -3
    endloop
  endfacet
  facet normal 0 0 -1
    outer loop
      vertex 40 -28 -3
      vertex 43 -25 -3
      vertex 42.9631 -25.4693 -3
    endloop
  endfacet
  facet normal 0 0 -1
    outer loop
      vertex 43 -25 -3
      vertex 19.1 0 -3
      vertex 43 25 -3
    endloop
  endfacet
  facet normal 0 0 -1
    outer loop
      vertex 40 -28 -3
      vertex 42.9631 -25.4693 -3
      vertex 42.8532 -25.9271 -3
    endloop
  endfacet
  facet normal 0 0 -1
    outer loop
      vertex 17.05 3.5507 -3
      vertex 43 25 -3
      vertex 19.1 0 -3
    endloop
  endfacet
  facet normal 0 0 -1
    outer loop
      vertex 40 -28 -3
      vertex 42.8532 -25.9271 -3
      vertex 42.673 -26.362 -3
    endloop
  endfacet
  facet normal 0 -0 -1
    outer loop
      vertex 40 28 -3
      vertex 43 25 -3
      vertex 17.05 3.5507 -3
    endloop
  endfacet
  facet normal 0 0 -1
    outer loop
      vertex 40 -28 -3
      vertex 42.673 -26.362 -3
      vertex 42.4271 -26.7634 -3
    endloop
  endfacet
  facet normal 0 0 -1
    outer loop
      vertex 43 25 -3
      vertex 40 28 -3
      vertex 42.9631 25.4693 -3
    endloop
  endfacet
  facet normal 0 0 -1
    outer loop
      vertex 40 -28 -3
      vertex 42.4271 -26.7634 -3
      vertex 42.1213 -27.1213 -3
    endloop
  endfacet
  facet normal 0 0 -1
    outer loop
      vertex 42.9631 25.4693 -3
      vertex 40 28 -3
      vertex 42.8532 25.9271 -3
    endloop
  endfacet
  facet normal 0 0 -1
    outer loop
      vertex 40 -28 -3
      vertex 42.1213 -27.1213 -3
      vertex 41.7634 -27.4271 -3
    endloop
  endfacet
  facet normal 0 0 -1
    outer loop
      vertex 42.8532 25.9271 -3
      vertex 40 28 -3
      vertex 42.673 26.362 -3
    endloop
  endfacet
  facet normal 0 0 -1
    outer loop
      vertex 40 -28 -3
      vertex 41.7634 -27.4271 -3
      vertex 41.362 -27.673 -3
    endloop
  endfacet
  facet normal 0 0 -1
    outer loop
      vertex 42.4271 26.7634 -3
      vertex 40 28 -3
      vertex 42.1213 27.1213 -3
    endloop
  endfacet
  facet normal 0 0 -1
    outer loop
      vertex 40 -28 -3
      vertex 41.362 -27.673 -3
      vertex 40.9271 -27.8532 -3
    endloop
  endfacet
  facet normal 0 0 -1
    outer loop
      vertex 42.1213 27.1213 -3
      vertex 40 28 -3
      vertex 41.7634 27.4271 -3
    endloop
  endfacet
  facet normal 0 0 -1
    outer loop
      vertex 40 -28 -3
      vertex 40.9271 -27.8532 -3
      vertex 40.4693 -27.9631 -3
    endloop
  endfacet
  facet normal 0 0 -1
    outer loop
      vertex 41.7634 27.4271 -3
      vertex 40 28 -3
      vertex 41.362 27.673 -3
    endloop
  endfacet
  facet normal -0 0 -1
    outer loop
      vertex 43 -25 -3
      vertex 40 -28 -3
      vertex 17.05 -3.5507 -3
    endloop
  endfacet
  facet normal 0 0 -1
    outer loop
      vertex 41.362 27.673 -3
      vertex 40 28 -3
      vertex 40.9271 27.8532 -3
    endloop
  endfacet
  facet normal 0 0 -1
    outer loop
      vertex 40.9271 27.8532 -3
      vertex 40 28 -3
      vertex 40.4693 27.9631 -3
    endloop
  endfacet
  facet normal 0 0 -1
    outer loop
      vertex 43 -25 -3
      vertex 17.05 -3.5507 -3
      vertex 19.1 0 -3
    endloop
  endfacet
  facet normal 0 0 -1
    outer loop
      vertex 40 -28 -3
      vertex 12.95 -3.5507 -3
      vertex 17.05 -3.5507 -3
    endloop
  endfacet
  facet normal -0 0 -1
    outer loop
      vertex 12.95 -3.5507 -3
      vertex -40 -28 -3
      vertex 10.9 0 -3
    endloop
  endfacet
  facet normal 0 0 -1
    outer loop
      vertex -40 -28 -3
      vertex 12.95 -3.5507 -3
      vertex 40 -28 -3
    endloop
  endfacet
  facet normal 0 0 -1
    outer loop
      vertex 42.673 26.362 -3
      vertex 40 28 -3
      vertex 42.4271 26.7634 -3
    endloop
  endfacet
  facet normal 0 0 -1
    outer loop
      vertex 12.95 3.5507 -3
      vertex 40 28 -3
      vertex 17.05 3.5507 -3
    endloop
  endfacet
  facet normal 0 0 -1
    outer loop
      vertex -43 -25 -3
      vertex 10.9 0 -3
      vertex -40 -28 -3
    endloop
  endfacet
  facet normal 0 0 -1
    outer loop
      vertex -43 25 -3
      vertex 10.9 0 -3
      vertex -43 -25 -3
    endloop
  endfacet
  facet normal 0 0 -1
    outer loop
      vertex 12.95 3.5507 -3
      vertex -40 28 -3
      vertex 40 28 -3
    endloop
  endfacet
  facet normal 0 0 -1
    outer loop
      vertex -43 -25 -3
      vertex -40 -28 -3
      vertex -40.4693 -27.9631 -3
    endloop
  endfacet
  facet normal 0 -0 -1
    outer loop
      vertex -40 28 -3
      vertex 10.9 0 -3
      vertex -43 25 -3
    endloop
  endfacet
  facet normal 0 0 -1
    outer loop
      vertex -43 -25 -3
      vertex -40.4693 -27.9631 -3
      vertex -40.9271 -27.8532 -3
    endloop
  endfacet
  facet normal 0 0 -1
    outer loop
      vertex 10.9 0 -3
      vertex -40 28 -3
      vertex 12.95 3.5507 -3
    endloop
  endfacet
  facet normal 0 0 -1
    outer loop
      vertex -43 -25 -3
      vertex -40.9271 -27.8532 -3
      vertex -41.362 -27.673 -3
    endloop
  endfacet
  facet normal 0 0 -1
    outer loop
      vertex -40 28 -3
      vertex -43 25 -3
      vertex -40.4693 27.9631 -3
    endloop
  endfacet
  facet normal 0 0 -1
    outer loop
      vertex -43 -25 -3
      vertex -41.362 -27.673 -3
      vertex -41.7634 -27.4271 -3
    endloop
  endfacet
  facet normal 0 0 -1
    outer loop
      vertex -40.4693 27.9631 -3
      vertex -43 25 -3
      vertex -40.9271 27.8532 -3
    endloop
  endfacet
  facet normal 0 0 -1
    outer loop
      vertex -43 -25 -3
      vertex -41.7634 -27.4271 -3
      vertex -42.1213 -27.1213 -3
    endloop
  endfacet
  facet normal 0 0 -1
    outer loop
      vertex -40.9271 27.8532 -3
      vertex -43 25 -3
      vertex -41.362 27.673 -3
    endloop
  endfacet
  facet normal 0 0 -1
    outer loop
      vertex -43 -25 -3
      vertex -42.1213 -27.1213 -3
      vertex -42.4271 -26.7634 -3
    endloop
  endfacet
  facet normal 0 0 -1
    outer loop
      vertex -41.362 27.673 -3
      vertex -43 25 -3
      vertex -41.7634 27.4271 -3
    endloop
  endfacet
  facet normal 0 0 -1
    outer loop
      vertex -43 -25 -3
      vertex -42.4271 -26.7634 -3
      vertex -42.673 -26.362 -3
    endloop
  endfacet
  facet normal 0 0 -1
    outer loop
      vertex -41.7634 27.4271 -3
      vertex -43 25 -3
      vertex -42.1213 27.1213 -3
    endloop
  endfacet
  facet normal 0 0 -1
    outer loop
      vertex -43 -25 -3
      vertex -42.673 -26.362 -3
      vertex -42.8532 -25.9271 -3
    endloop
  endfacet
  facet normal 0 0 -1
    outer loop
      vertex -42.1213 27.1213 -3
      vertex -43 25 -3
      vertex -42.4271 26.7634 -3
    endloop
  endfacet
  facet normal 0 0 -1
    outer loop
      vertex -43 -25 -3
      vertex -42.8532 -25.9271 -3
      vertex -42.9631 -25.4693 -3
    endloop
  endfacet
  facet normal 0 0 -1
    outer loop
      vertex -42.4271 26.7634 -3
      vertex -43 25 -3
      vertex -42.673 26.362 -3
    endloop
  endfacet
  facet normal 0 0 -1
    outer loop
      vertex -42.673 26.362 -3
      vertex -43 25 -3
      vertex -42.8532 25.9271 -3
    endloop
  endfacet
  facet normal 0 0 -1
    outer loop
      vertex -42.8532 25.9271 -3
      vertex -43 25 -3
      vertex -42.9631 25.4693 -3
    endloop
  endfacet
  facet normal -0.972369 -0.233449 0
    outer loop
      vertex -42.8532 -25.9271 -3
      vertex -42.9631 -25.4693 3
      vertex -42.9631 -25.4693 -3
    endloop
  endfacet
  facet normal -0.972369 -0.233449 0
    outer loop
      vertex -42.9631 -25.4693 3
      vertex -42.8532 -25.9271 -3
      vertex -42.8532 -25.9271 3
    endloop
  endfacet
  facet normal -0.760403 -0.649452 0
    outer loop
      vertex -42.1213 -27.1213 -3
      vertex -42.4271 -26.7634 3
      vertex -42.4271 -26.7634 -3
    endloop
  endfacet
  facet normal -0.760403 -0.649452 0
    outer loop
      vertex -42.4271 -26.7634 3
      vertex -42.1213 -27.1213 -3
      vertex -42.1213 -27.1213 3
    endloop
  endfacet
  facet normal -0.522496 -0.852642 0
    outer loop
      vertex -41.7634 -27.4271 -3
      vertex -41.362 -27.673 3
      vertex -41.7634 -27.4271 3
    endloop
  endfacet
  facet normal -0.522496 -0.852642 -0
    outer loop
      vertex -41.362 -27.673 3
      vertex -41.7634 -27.4271 -3
      vertex -41.362 -27.673 -3
    endloop
  endfacet
  facet normal 0.996918 -0.0784569 0
    outer loop
      vertex 42.9631 -25.4693 3
      vertex 43 -25 -3
      vertex 43 -25 3
    endloop
  endfacet
  facet normal 0.996918 -0.0784569 0
    outer loop
      vertex 43 -25 -3
      vertex 42.9631 -25.4693 3
      vertex 42.9631 -25.4693 -3
    endloop
  endfacet
  facet normal 0.522496 0.852642 -0
    outer loop
      vertex 41.7634 27.4271 -3
      vertex 41.362 27.673 3
      vertex 41.7634 27.4271 3
    endloop
  endfacet
  facet normal 0.522496 0.852642 0
    outer loop
      vertex 41.362 27.673 3
      vertex 41.7634 27.4271 -3
      vertex 41.362 27.673 -3
    endloop
  endfacet
  facet normal 0.0784609 0.996917 -0
    outer loop
      vertex 40.4693 27.9631 -3
      vertex 40 28 3
      vertex 40.4693 27.9631 3
    endloop
  endfacet
  facet normal 0.0784609 0.996917 0
    outer loop
      vertex 40 28 3
      vertex 40.4693 27.9631 -3
      vertex 40 28 -3
    endloop
  endfacet
  facet normal 0.382684 0.923879 -0
    outer loop
      vertex 41.362 27.673 -3
      vertex 40.9271 27.8532 3
      vertex 41.362 27.673 3
    endloop
  endfacet
  facet normal 0.382684 0.923879 0
    outer loop
      vertex 40.9271 27.8532 3
      vertex 41.362 27.673 -3
      vertex 40.9271 27.8532 -3
    endloop
  endfacet
  facet normal -0.760403 0.649452 0
    outer loop
      vertex -42.4271 26.7634 -3
      vertex -42.1213 27.1213 3
      vertex -42.1213 27.1213 -3
    endloop
  endfacet
  facet normal -0.760403 0.649452 0
    outer loop
      vertex -42.1213 27.1213 3
      vertex -42.4271 26.7634 -3
      vertex -42.4271 26.7634 3
    endloop
  endfacet
  facet normal -0.649452 0.760403 0
    outer loop
      vertex -41.7634 27.4271 -3
      vertex -42.1213 27.1213 3
      vertex -41.7634 27.4271 3
    endloop
  endfacet
  facet normal -0.649452 0.760403 0
    outer loop
      vertex -42.1213 27.1213 3
      vertex -41.7634 27.4271 -3
      vertex -42.1213 27.1213 -3
    endloop
  endfacet
  facet normal -0.522496 0.852642 0
    outer loop
      vertex -41.362 27.673 -3
      vertex -41.7634 27.4271 3
      vertex -41.362 27.673 3
    endloop
  endfacet
  facet normal -0.522496 0.852642 0
    outer loop
      vertex -41.7634 27.4271 3
      vertex -41.362 27.673 -3
      vertex -41.7634 27.4271 -3
    endloop
  endfacet
  facet normal -0.233445 0.97237 0
    outer loop
      vertex -40.4693 27.9631 -3
      vertex -40.9271 27.8532 3
      vertex -40.4693 27.9631 3
    endloop
  endfacet
  facet normal -0.233445 0.97237 0
    outer loop
      vertex -40.9271 27.8532 3
      vertex -40.4693 27.9631 -3
      vertex -40.9271 27.8532 -3
    endloop
  endfacet
  facet normal 0.92388 -0.382683 0
    outer loop
      vertex 42.673 -26.362 3
      vertex 42.8532 -25.9271 -3
      vertex 42.8532 -25.9271 3
    endloop
  endfacet
  facet normal 0.92388 -0.382683 0
    outer loop
      vertex 42.8532 -25.9271 -3
      vertex 42.673 -26.362 3
      vertex 42.673 -26.362 -3
    endloop
  endfacet
  facet normal 0.852641 -0.522497 0
    outer loop
      vertex 42.4271 -26.7634 3
      vertex 42.673 -26.362 -3
      vertex 42.673 -26.362 3
    endloop
  endfacet
  facet normal 0.852641 -0.522497 0
    outer loop
      vertex 42.673 -26.362 -3
      vertex 42.4271 -26.7634 3
      vertex 42.4271 -26.7634 -3
    endloop
  endfacet
  facet normal 0.760403 -0.649452 0
    outer loop
      vertex 42.1213 -27.1213 3
      vertex 42.4271 -26.7634 -3
      vertex 42.4271 -26.7634 3
    endloop
  endfacet
  facet normal 0.760403 -0.649452 0
    outer loop
      vertex 42.4271 -26.7634 -3
      vertex 42.1213 -27.1213 3
      vertex 42.1213 -27.1213 -3
    endloop
  endfacet
  facet normal 0.233445 -0.97237 0
    outer loop
      vertex 40.4693 -27.9631 -3
      vertex 40.9271 -27.8532 3
      vertex 40.4693 -27.9631 3
    endloop
  endfacet
  facet normal 0.233445 -0.97237 0
    outer loop
      vertex 40.9271 -27.8532 3
      vertex 40.4693 -27.9631 -3
      vertex 40.9271 -27.8532 -3
    endloop
  endfacet
  facet normal 0.233445 0.97237 -0
    outer loop
      vertex 40.9271 27.8532 -3
      vertex 40.4693 27.9631 3
      vertex 40.9271 27.8532 3
    endloop
  endfacet
  facet normal 0.233445 0.97237 0
    outer loop
      vertex 40.4693 27.9631 3
      vertex 40.9271 27.8532 -3
      vertex 40.4693 27.9631 -3
    endloop
  endfacet
  facet normal -0.866025 -0.5 0
    outer loop
      vertex 19.1 0 -3
      vertex 17.05 3.5507 3
      vertex 17.05 3.5507 -3
    endloop
  endfacet
  facet normal -0.866025 -0.5 0
    outer loop
      vertex 17.05 3.5507 3
      vertex 19.1 0 -3
      vertex 19.1 0 3
    endloop
  endfacet
  facet normal 0.866025 -0.5 0
    outer loop
      vertex 10.9 0 3
      vertex 12.95 3.5507 -3
      vertex 12.95 3.5507 3
    endloop
  endfacet
  facet normal 0.866025 -0.5 0
    outer loop
      vertex 12.95 3.5507 -3
      vertex 10.9 0 3
      vertex 10.9 0 -3
    endloop
  endfacet
  facet normal 0 -1 0
    outer loop
      vertex 12.95 3.5507 -3
      vertex 17.05 3.5507 3
      vertex 12.95 3.5507 3
    endloop
  endfacet
  facet normal 0 -1 -0
    outer loop
      vertex 17.05 3.5507 3
      vertex 12.95 3.5507 -3
      vertex 17.05 3.5507 -3
    endloop
  endfacet
  facet normal -0.866025 0.5 0
    outer loop
      vertex 17.05 -3.5507 -3
      vertex 19.1 0 3
      vertex 19.1 0 -3
    endloop
  endfacet
  facet normal -0.866025 0.5 0
    outer loop
      vertex 19.1 0 3
      vertex 17.05 -3.5507 -3
      vertex 17.05 -3.5507 3
    endloop
  endfacet
  facet normal 0 1 -0
    outer loop
      vertex 17.05 -3.5507 -3
      vertex 12.95 -3.5507 3
      vertex 17.05 -3.5507 3
    endloop
  endfacet
  facet normal 0 1 0
    outer loop
      vertex 12.95 -3.5507 3
      vertex 17.05 -3.5507 -3
      vertex 12.95 -3.5507 -3
    endloop
  endfacet
  facet normal 0.866025 0.5 0
    outer loop
      vertex 12.95 -3.5507 3
      vertex 10.9 0 -3
      vertex 10.9 0 3
    endloop
  endfacet
  facet normal 0.866025 0.5 0
    outer loop
      vertex 10.9 0 -3
      vertex 12.95 -3.5507 3
      vertex 12.95 -3.5507 -3
    endloop
  endfacet
endsolid OpenSCAD_Model
